<mxfile host="app.diagrams.net" modified="2020-12-22T05:20:29.735Z" agent="5.0 (Macintosh; Intel Mac OS X 10_15_7) AppleWebKit/537.36 (KHTML, like Gecko) Chrome/87.0.4280.88 Safari/537.36" etag="Ln4LVOvuBAXKSe-X9YLY" version="13.11.0" type="github">
  <diagram id="vvCtHQac01AdTCWUVTD1" name="Page-1">
    <mxGraphModel dx="1298" dy="2003" grid="1" gridSize="7" guides="1" tooltips="1" connect="1" arrows="1" fold="1" page="1" pageScale="1" pageWidth="827" pageHeight="1169" math="0" shadow="0">
      <root>
        <mxCell id="0" />
        <mxCell id="1" parent="0" />
        <mxCell id="MvB3ZV9TCIAlHzfZ9Kd8-13" value="Входная строка" style="shape=step;perimeter=stepPerimeter;whiteSpace=wrap;html=1;fixedSize=1;" vertex="1" parent="1">
          <mxGeometry x="105" y="-182" width="287" height="105" as="geometry" />
        </mxCell>
        <mxCell id="MvB3ZV9TCIAlHzfZ9Kd8-14" value="распознование" style="shape=step;perimeter=stepPerimeter;whiteSpace=wrap;html=1;fixedSize=1;" vertex="1" parent="1">
          <mxGeometry x="392" y="-182" width="287" height="105" as="geometry" />
        </mxCell>
        <mxCell id="MvB3ZV9TCIAlHzfZ9Kd8-15" value="вывод реально существующего адреса разбитого по полям(country, city, street, home, ..) в формате JSON" style="shape=step;perimeter=stepPerimeter;whiteSpace=wrap;html=1;fixedSize=1;" vertex="1" parent="1">
          <mxGeometry x="672" y="-180.5" width="364" height="105" as="geometry" />
        </mxCell>
        <mxCell id="MvB3ZV9TCIAlHzfZ9Kd8-16" value="1" style="text;html=1;align=center;verticalAlign=middle;whiteSpace=wrap;rounded=0;glass=0;shadow=0;strokeWidth=1;fontStyle=1;fontSize=41;" vertex="1" parent="1">
          <mxGeometry x="213" y="-231" width="40" height="20" as="geometry" />
        </mxCell>
        <mxCell id="MvB3ZV9TCIAlHzfZ9Kd8-18" value="2" style="text;html=1;align=center;verticalAlign=middle;whiteSpace=wrap;rounded=0;glass=0;shadow=0;strokeWidth=1;fontStyle=1;fontSize=41;" vertex="1" parent="1">
          <mxGeometry x="511" y="-231" width="40" height="20" as="geometry" />
        </mxCell>
        <mxCell id="MvB3ZV9TCIAlHzfZ9Kd8-19" value="3" style="text;html=1;align=center;verticalAlign=middle;whiteSpace=wrap;rounded=0;glass=0;shadow=0;strokeWidth=1;fontStyle=1;fontSize=41;" vertex="1" parent="1">
          <mxGeometry x="805" y="-224" width="40" height="20" as="geometry" />
        </mxCell>
        <mxCell id="MvB3ZV9TCIAlHzfZ9Kd8-58" value="&lt;div&gt;&lt;span&gt;Сервер&lt;/span&gt;&lt;/div&gt;&lt;div&gt;&lt;span&gt;&lt;br&gt;&lt;/span&gt;&lt;/div&gt;&lt;div&gt;&lt;span&gt;&lt;br&gt;&lt;/span&gt;&lt;/div&gt;&lt;div&gt;&lt;span&gt;&lt;br&gt;&lt;/span&gt;&lt;/div&gt;&lt;div&gt;&lt;span&gt;&lt;br&gt;&lt;/span&gt;&lt;/div&gt;" style="rounded=0;whiteSpace=wrap;html=1;shadow=0;glass=0;strokeWidth=1;fillColor=#d5e8d4;fontSize=15;strokeColor=#82b366;align=center;" vertex="1" parent="1">
          <mxGeometry x="567" y="238" width="707" height="151" as="geometry" />
        </mxCell>
        <mxCell id="MvB3ZV9TCIAlHzfZ9Kd8-60" value="&lt;div&gt;&lt;span&gt;Клиентcкое приложение&lt;/span&gt;&lt;/div&gt;" style="rounded=0;whiteSpace=wrap;html=1;shadow=0;glass=0;strokeWidth=1;fillColor=#d5e8d4;fontSize=15;strokeColor=#82b366;align=center;" vertex="1" parent="1">
          <mxGeometry x="196" y="238" width="113" height="151" as="geometry" />
        </mxCell>
        <mxCell id="MvB3ZV9TCIAlHzfZ9Kd8-61" value="Rest API" style="rounded=0;whiteSpace=wrap;html=1;shadow=0;glass=0;strokeWidth=1;fillColor=none;fontSize=15;" vertex="1" parent="1">
          <mxGeometry x="598.5" y="308" width="91" height="60" as="geometry" />
        </mxCell>
        <mxCell id="MvB3ZV9TCIAlHzfZ9Kd8-63" value="" style="endArrow=classic;html=1;fontSize=15;exitX=0;exitY=1;exitDx=0;exitDy=0;dashed=1;entryX=1;entryY=0.75;entryDx=0;entryDy=0;" edge="1" parent="1">
          <mxGeometry width="50" height="50" relative="1" as="geometry">
            <mxPoint x="644" y="700" as="sourcePoint" />
            <mxPoint x="253" y="700" as="targetPoint" />
          </mxGeometry>
        </mxCell>
        <mxCell id="MvB3ZV9TCIAlHzfZ9Kd8-64" value="Коллекция JSON с наборами найденных адресов&amp;nbsp;" style="edgeLabel;html=1;align=center;verticalAlign=middle;resizable=0;points=[];fontSize=15;" vertex="1" connectable="0" parent="MvB3ZV9TCIAlHzfZ9Kd8-63">
          <mxGeometry x="0.0604" y="-4" relative="1" as="geometry">
            <mxPoint x="10.999999999999996" y="-12.05" as="offset" />
          </mxGeometry>
        </mxCell>
        <mxCell id="MvB3ZV9TCIAlHzfZ9Kd8-66" value="" style="endArrow=classic;html=1;dashed=1;fontSize=15;" edge="1" parent="1">
          <mxGeometry width="50" height="50" relative="1" as="geometry">
            <mxPoint x="253" y="449" as="sourcePoint" />
            <mxPoint x="644" y="449" as="targetPoint" />
          </mxGeometry>
        </mxCell>
        <mxCell id="MvB3ZV9TCIAlHzfZ9Kd8-67" value="входная строка&amp;nbsp;" style="edgeLabel;html=1;align=center;verticalAlign=middle;resizable=0;points=[];fontSize=15;" vertex="1" connectable="0" parent="MvB3ZV9TCIAlHzfZ9Kd8-66">
          <mxGeometry x="-0.0946" relative="1" as="geometry">
            <mxPoint x="4" y="-15" as="offset" />
          </mxGeometry>
        </mxCell>
        <mxCell id="MvB3ZV9TCIAlHzfZ9Kd8-68" value="" style="endArrow=none;dashed=1;html=1;dashPattern=1 3;strokeWidth=2;fontSize=15;" edge="1" parent="1">
          <mxGeometry width="50" height="50" relative="1" as="geometry">
            <mxPoint x="253" y="973" as="sourcePoint" />
            <mxPoint x="253" y="389" as="targetPoint" />
          </mxGeometry>
        </mxCell>
        <mxCell id="MvB3ZV9TCIAlHzfZ9Kd8-69" value="" style="endArrow=none;dashed=1;html=1;dashPattern=1 3;strokeWidth=2;fontSize=15;entryX=0.5;entryY=1;entryDx=0;entryDy=0;" edge="1" parent="1" target="MvB3ZV9TCIAlHzfZ9Kd8-61">
          <mxGeometry width="50" height="50" relative="1" as="geometry">
            <mxPoint x="644" y="973" as="sourcePoint" />
            <mxPoint x="643.5" y="385" as="targetPoint" />
          </mxGeometry>
        </mxCell>
        <mxCell id="MvB3ZV9TCIAlHzfZ9Kd8-70" value="Ансамбль НС" style="rounded=0;whiteSpace=wrap;html=1;shadow=0;glass=0;strokeWidth=1;fillColor=none;fontSize=15;" vertex="1" parent="1">
          <mxGeometry x="791" y="308" width="84" height="60" as="geometry" />
        </mxCell>
        <mxCell id="MvB3ZV9TCIAlHzfZ9Kd8-71" value="" style="endArrow=none;dashed=1;html=1;dashPattern=1 3;strokeWidth=2;fontSize=15;entryX=0.5;entryY=1;entryDx=0;entryDy=0;" edge="1" parent="1">
          <mxGeometry width="50" height="50" relative="1" as="geometry">
            <mxPoint x="828" y="973" as="sourcePoint" />
            <mxPoint x="827.5" y="376.5" as="targetPoint" />
          </mxGeometry>
        </mxCell>
        <mxCell id="MvB3ZV9TCIAlHzfZ9Kd8-72" value="" style="endArrow=classic;html=1;dashed=1;fontSize=15;" edge="1" parent="1">
          <mxGeometry width="50" height="50" relative="1" as="geometry">
            <mxPoint x="646" y="518" as="sourcePoint" />
            <mxPoint x="827" y="518" as="targetPoint" />
          </mxGeometry>
        </mxCell>
        <mxCell id="MvB3ZV9TCIAlHzfZ9Kd8-73" value="входная строка&amp;nbsp;" style="edgeLabel;html=1;align=center;verticalAlign=middle;resizable=0;points=[];fontSize=15;" vertex="1" connectable="0" parent="MvB3ZV9TCIAlHzfZ9Kd8-72">
          <mxGeometry x="-0.0946" relative="1" as="geometry">
            <mxPoint x="4" y="-15" as="offset" />
          </mxGeometry>
        </mxCell>
        <mxCell id="MvB3ZV9TCIAlHzfZ9Kd8-74" value="Хранилище&amp;nbsp;&lt;br&gt;данных для дальнейшей корректировки НС" style="shape=cylinder3;whiteSpace=wrap;html=1;boundedLbl=1;backgroundOutline=1;size=15;" vertex="1" parent="1">
          <mxGeometry x="1134" y="280" width="119" height="96.5" as="geometry" />
        </mxCell>
        <mxCell id="MvB3ZV9TCIAlHzfZ9Kd8-75" value="" style="endArrow=classic;html=1;dashed=1;fontSize=15;" edge="1" parent="1">
          <mxGeometry width="50" height="50" relative="1" as="geometry">
            <mxPoint x="644" y="476" as="sourcePoint" />
            <mxPoint x="1197" y="476" as="targetPoint" />
          </mxGeometry>
        </mxCell>
        <mxCell id="MvB3ZV9TCIAlHzfZ9Kd8-76" value="сохранение&amp;nbsp; исходной строки" style="edgeLabel;html=1;align=center;verticalAlign=middle;resizable=0;points=[];fontSize=15;" vertex="1" connectable="0" parent="MvB3ZV9TCIAlHzfZ9Kd8-75">
          <mxGeometry x="-0.0946" relative="1" as="geometry">
            <mxPoint x="65" y="-15" as="offset" />
          </mxGeometry>
        </mxCell>
        <mxCell id="MvB3ZV9TCIAlHzfZ9Kd8-77" value="" style="endArrow=none;dashed=1;html=1;dashPattern=1 3;strokeWidth=2;fontSize=15;entryX=0.5;entryY=1;entryDx=0;entryDy=0;" edge="1" parent="1">
          <mxGeometry width="50" height="50" relative="1" as="geometry">
            <mxPoint x="1198" y="987" as="sourcePoint" />
            <mxPoint x="1197.5" y="376.5" as="targetPoint" />
          </mxGeometry>
        </mxCell>
        <mxCell id="MvB3ZV9TCIAlHzfZ9Kd8-81" value="Модуль поиска кандидата" style="rounded=0;whiteSpace=wrap;html=1;shadow=0;glass=0;strokeWidth=1;fillColor=none;fontSize=15;" vertex="1" parent="1">
          <mxGeometry x="966" y="308" width="84" height="60" as="geometry" />
        </mxCell>
        <mxCell id="MvB3ZV9TCIAlHzfZ9Kd8-82" value="" style="endArrow=none;dashed=1;html=1;dashPattern=1 3;strokeWidth=2;fontSize=15;entryX=0.5;entryY=1;entryDx=0;entryDy=0;" edge="1" parent="1">
          <mxGeometry width="50" height="50" relative="1" as="geometry">
            <mxPoint x="1009" y="973" as="sourcePoint" />
            <mxPoint x="1008.5" y="368" as="targetPoint" />
          </mxGeometry>
        </mxCell>
        <mxCell id="MvB3ZV9TCIAlHzfZ9Kd8-83" value="" style="endArrow=classic;html=1;dashed=1;fontSize=15;" edge="1" parent="1">
          <mxGeometry width="50" height="50" relative="1" as="geometry">
            <mxPoint x="833" y="595" as="sourcePoint" />
            <mxPoint x="1008" y="595" as="targetPoint" />
          </mxGeometry>
        </mxCell>
        <mxCell id="MvB3ZV9TCIAlHzfZ9Kd8-84" value="JSON с распознанными&lt;br&gt;&amp;nbsp;полями адреса" style="edgeLabel;html=1;align=center;verticalAlign=middle;resizable=0;points=[];fontSize=15;labelBackgroundColor=none;" vertex="1" connectable="0" parent="MvB3ZV9TCIAlHzfZ9Kd8-83">
          <mxGeometry x="-0.0946" relative="1" as="geometry">
            <mxPoint x="8.5" y="-28" as="offset" />
          </mxGeometry>
        </mxCell>
        <mxCell id="MvB3ZV9TCIAlHzfZ9Kd8-85" style="edgeStyle=orthogonalEdgeStyle;rounded=0;orthogonalLoop=1;jettySize=auto;html=1;exitX=0.5;exitY=0;exitDx=0;exitDy=0;entryX=0.667;entryY=0.017;entryDx=0;entryDy=0;entryPerimeter=0;dashed=1;fontSize=15;fontColor=#000000;" edge="1" parent="1" source="MvB3ZV9TCIAlHzfZ9Kd8-81" target="MvB3ZV9TCIAlHzfZ9Kd8-81">
          <mxGeometry relative="1" as="geometry" />
        </mxCell>
        <mxCell id="MvB3ZV9TCIAlHzfZ9Kd8-86" value="" style="endArrow=classic;html=1;fontSize=15;dashed=1;entryX=1;entryY=0.75;entryDx=0;entryDy=0;" edge="1" parent="1">
          <mxGeometry width="50" height="50" relative="1" as="geometry">
            <mxPoint x="1006.5" y="672" as="sourcePoint" />
            <mxPoint x="643.5" y="672" as="targetPoint" />
          </mxGeometry>
        </mxCell>
        <mxCell id="MvB3ZV9TCIAlHzfZ9Kd8-88" value="Коллекция JSON с наборами найденных адресов&amp;nbsp;" style="edgeLabel;html=1;align=center;verticalAlign=middle;resizable=0;points=[];fontSize=15;fontColor=#000000;" vertex="1" connectable="0" parent="MvB3ZV9TCIAlHzfZ9Kd8-86">
          <mxGeometry x="0.3499" relative="1" as="geometry">
            <mxPoint x="56" y="-14" as="offset" />
          </mxGeometry>
        </mxCell>
        <mxCell id="MvB3ZV9TCIAlHzfZ9Kd8-89" value="" style="endArrow=classic;html=1;dashed=1;fontSize=15;" edge="1" parent="1">
          <mxGeometry width="50" height="50" relative="1" as="geometry">
            <mxPoint x="253" y="784" as="sourcePoint" />
            <mxPoint x="644" y="784" as="targetPoint" />
          </mxGeometry>
        </mxCell>
        <mxCell id="MvB3ZV9TCIAlHzfZ9Kd8-90" value="корректный вариант" style="edgeLabel;html=1;align=center;verticalAlign=middle;resizable=0;points=[];fontSize=15;" vertex="1" connectable="0" parent="MvB3ZV9TCIAlHzfZ9Kd8-89">
          <mxGeometry x="-0.0946" relative="1" as="geometry">
            <mxPoint x="4" y="-15" as="offset" />
          </mxGeometry>
        </mxCell>
        <mxCell id="MvB3ZV9TCIAlHzfZ9Kd8-91" value="Пользователь" style="shape=umlActor;verticalLabelPosition=bottom;verticalAlign=top;html=1;rounded=0;shadow=0;glass=0;labelBackgroundColor=none;strokeWidth=1;fillColor=none;fontSize=15;fontColor=#000000;" vertex="1" parent="1">
          <mxGeometry x="63" y="308" width="30" height="60" as="geometry" />
        </mxCell>
        <mxCell id="MvB3ZV9TCIAlHzfZ9Kd8-92" value="" style="endArrow=classic;html=1;dashed=1;fontSize=15;fontColor=#000000;" edge="1" parent="1">
          <mxGeometry width="50" height="50" relative="1" as="geometry">
            <mxPoint x="77" y="434" as="sourcePoint" />
            <mxPoint x="252" y="434" as="targetPoint" />
            <Array as="points">
              <mxPoint x="175" y="434" />
            </Array>
          </mxGeometry>
        </mxCell>
        <mxCell id="MvB3ZV9TCIAlHzfZ9Kd8-93" value="вввод текста" style="edgeLabel;html=1;align=center;verticalAlign=middle;resizable=0;points=[];fontSize=15;fontColor=#000000;" vertex="1" connectable="0" parent="MvB3ZV9TCIAlHzfZ9Kd8-92">
          <mxGeometry x="-0.3198" y="1" relative="1" as="geometry">
            <mxPoint x="20" y="-11" as="offset" />
          </mxGeometry>
        </mxCell>
        <mxCell id="MvB3ZV9TCIAlHzfZ9Kd8-94" value="" style="endArrow=none;dashed=1;html=1;dashPattern=1 3;strokeWidth=2;fontSize=15;" edge="1" parent="1">
          <mxGeometry width="50" height="50" relative="1" as="geometry">
            <mxPoint x="77.5" y="1011" as="sourcePoint" />
            <mxPoint x="77" y="399" as="targetPoint" />
          </mxGeometry>
        </mxCell>
        <mxCell id="MvB3ZV9TCIAlHzfZ9Kd8-100" value="" style="endArrow=classic;html=1;dashed=1;fontSize=15;fontColor=#000000;" edge="1" parent="1">
          <mxGeometry width="50" height="50" relative="1" as="geometry">
            <mxPoint x="85" y="756" as="sourcePoint" />
            <mxPoint x="253" y="756" as="targetPoint" />
            <Array as="points">
              <mxPoint x="176" y="756" />
            </Array>
          </mxGeometry>
        </mxCell>
        <mxCell id="MvB3ZV9TCIAlHzfZ9Kd8-101" value="выбор &lt;br&gt;удовлетворяющего&lt;br&gt;&amp;nbsp;запрос варианта" style="edgeLabel;html=1;align=center;verticalAlign=middle;resizable=0;points=[];fontSize=15;fontColor=#000000;labelBackgroundColor=none;" vertex="1" connectable="0" parent="MvB3ZV9TCIAlHzfZ9Kd8-100">
          <mxGeometry x="-0.3198" y="1" relative="1" as="geometry">
            <mxPoint x="20" y="-34" as="offset" />
          </mxGeometry>
        </mxCell>
        <mxCell id="MvB3ZV9TCIAlHzfZ9Kd8-102" value="" style="endArrow=classic;html=1;dashed=1;fontSize=15;" edge="1" parent="1">
          <mxGeometry width="50" height="50" relative="1" as="geometry">
            <mxPoint x="644" y="812" as="sourcePoint" />
            <mxPoint x="1197" y="812" as="targetPoint" />
          </mxGeometry>
        </mxCell>
        <mxCell id="MvB3ZV9TCIAlHzfZ9Kd8-103" value="сохранение корректного варианта в БД&amp;nbsp;" style="edgeLabel;html=1;align=center;verticalAlign=middle;resizable=0;points=[];fontSize=15;" vertex="1" connectable="0" parent="MvB3ZV9TCIAlHzfZ9Kd8-102">
          <mxGeometry x="-0.0946" relative="1" as="geometry">
            <mxPoint x="65" y="-15" as="offset" />
          </mxGeometry>
        </mxCell>
        <mxCell id="MvB3ZV9TCIAlHzfZ9Kd8-104" value="" style="endArrow=classic;html=1;dashed=1;fontSize=15;" edge="1" parent="1">
          <mxGeometry width="50" height="50" relative="1" as="geometry">
            <mxPoint x="833" y="623" as="sourcePoint" />
            <mxPoint x="1197" y="623" as="targetPoint" />
          </mxGeometry>
        </mxCell>
        <mxCell id="MvB3ZV9TCIAlHzfZ9Kd8-105" value="сохранение&amp;nbsp; результата распознования" style="edgeLabel;html=1;align=center;verticalAlign=middle;resizable=0;points=[];fontSize=15;" vertex="1" connectable="0" parent="MvB3ZV9TCIAlHzfZ9Kd8-104">
          <mxGeometry x="-0.0946" relative="1" as="geometry">
            <mxPoint x="31" y="-15" as="offset" />
          </mxGeometry>
        </mxCell>
        <mxCell id="MvB3ZV9TCIAlHzfZ9Kd8-106" value="" style="rounded=0;whiteSpace=wrap;html=1;shadow=0;glass=1;labelBackgroundColor=none;strokeWidth=1;fillColor=#fff2cc;fontSize=15;strokeColor=#d6b656;fillOpacity=9;" vertex="1" parent="1">
          <mxGeometry x="14" y="210" width="330" height="812" as="geometry" />
        </mxCell>
      </root>
    </mxGraphModel>
  </diagram>
</mxfile>
